<mxfile host="65bd71144e">
    <diagram id="tKJuRIwTwCE2HmaIJ2Yb" name="Page-1">
        <mxGraphModel dx="1488" dy="812" grid="1" gridSize="10" guides="1" tooltips="1" connect="1" arrows="1" fold="1" page="1" pageScale="1" pageWidth="1920" pageHeight="1200" math="0" shadow="0">
            <root>
                <mxCell id="0"/>
                <mxCell id="1" parent="0"/>
            </root>
        </mxGraphModel>
    </diagram>
</mxfile>